<svg width="199" height="41" viewBox="0 0 199 41" fill="none" xmlns="http://www.w3.org/2000/svg">
<path d="M28.615 33.7173L2.03726 15.3839C-0.656078 13.5262 0.259478 9.65801 3.618 8.74838L31.8654 1.08171C33.0794 0.643658 34.4302 0.818276 35.4929 1.55065C36.5556 2.28302 37.1996 3.48315 37.2224 4.77357L35.5484 30.7721C35.3498 33.858 31.3084 35.575 28.615 33.7173Z" fill="url(#paint0_linear_1_4604)"/>
<path d="M20.1851 38.243L4.52728 7.62223C3.79752 6.19395 3.92947 4.47722 4.86892 3.17724C5.80837 1.87725 7.39695 1.21317 8.9821 1.45779L37.9999 5.93631C39.3551 6.14549 40.5275 6.99269 41.1516 8.21378C41.7756 9.43487 41.7754 10.8813 41.151 12.1022L27.7836 38.2445C27.0518 39.6685 25.585 40.5637 23.9839 40.5634C22.3828 40.5631 20.9163 39.6673 20.1851 38.243Z" fill="url(#paint1_linear_1_4604)"/>
<path d="M37.151 5.80486L22.6858 3.57227L4.92578 8.39449L12.0147 22.2626L28.6147 33.7175C28.9809 33.9673 29.3837 34.1587 29.8087 34.2849L36.1139 21.9545L37.151 5.80486Z" fill="#001A49"/>
<path fill-rule="evenodd" clip-rule="evenodd" d="M113.139 6.66553C111.638 6.66553 110.421 7.88265 110.421 9.38405C110.436 10.8791 111.644 12.0873 113.139 12.1026C114.641 12.1026 115.858 10.8854 115.858 9.38405C115.858 7.88265 114.641 6.66553 113.139 6.66553ZM115.406 13.4315H110.874V28.5337H115.406V13.4315Z" fill="#001A49"/>
<path fill-rule="evenodd" clip-rule="evenodd" d="M133.026 26.4707C134.381 24.9738 135.083 22.9985 134.976 20.9823C135.083 18.9663 134.381 16.9911 133.026 15.4944C131.671 13.9978 129.775 13.1032 127.759 13.009C126.058 12.916 124.406 13.5921 123.258 14.8504V13.4312H118.728V34.5749H123.258V27.1141C124.405 28.3731 126.058 29.0497 127.759 28.9571C129.775 28.8625 131.671 27.9676 133.026 26.4707ZM126.791 17.4776C128.765 17.4445 130.396 19.0089 130.446 20.9823C130.515 21.9632 130.162 22.927 129.475 23.631C128.789 24.3351 127.834 24.7125 126.852 24.6682C124.878 24.6684 123.273 23.077 123.256 21.103C123.24 19.129 124.817 17.5108 126.791 17.4776Z" fill="#001A49"/>
<path d="M148.96 24.0003C148.96 27.4744 145.939 28.9544 142.677 28.9544C139.98 29.1984 137.408 27.7738 136.184 25.3588L140.11 23.1248C140.438 24.2491 141.509 24.9902 142.677 24.9025C143.764 24.9025 144.307 24.5692 144.307 23.9662C144.307 22.304 136.877 23.1811 136.877 17.9544C136.877 14.6625 139.655 13.0018 142.803 13.0018C145.208 12.9263 147.463 14.164 148.692 16.2329L144.827 18.3174C144.481 17.5069 143.684 16.9818 142.803 16.984C142.018 16.984 141.535 17.2803 141.535 17.8299C141.53 19.5633 148.96 18.4151 148.96 24.0003Z" fill="#001A49"/>
<path d="M165.518 13.4312V28.5334H160.988V27.1112C159.926 28.382 158.32 29.0673 156.668 28.9541C153.618 28.9541 151.021 26.7793 151.021 22.7008V13.4312H155.551V22.04C155.474 22.7686 155.721 23.4942 156.228 24.0237C156.734 24.5531 157.448 24.8328 158.179 24.7882C159.84 24.7882 160.994 23.8223 160.994 21.6771V13.4312H165.518Z" fill="#001A49"/>
<path d="M191.486 19.2597V28.5338H186.956V19.6538C186.956 18.1441 186.23 17.1767 184.781 17.1767C183.27 17.1767 182.426 18.2345 182.426 20.0167V28.5338H177.894V19.6538C177.894 18.1441 177.169 17.1767 175.719 17.1767C174.209 17.1767 173.363 18.2345 173.363 20.0167V28.5338H168.833V13.4315H173.371V14.8152C174.325 13.5633 175.849 12.881 177.418 13.0034C178.996 12.9262 180.498 13.6827 181.375 14.996C182.396 13.6229 184.05 12.8704 185.756 13.0034C189.223 13.0093 191.486 15.4849 191.486 19.2597Z" fill="#001A49"/>
<path d="M195.325 13.3382C197.182 13.3382 198.688 11.8326 198.688 9.97527C198.688 8.11795 197.182 6.6123 195.325 6.6123C193.468 6.6123 191.962 8.11795 191.962 9.97527C191.962 11.8326 193.468 13.3382 195.325 13.3382Z" fill="#001A49"/>
<path fill-rule="evenodd" clip-rule="evenodd" d="M48.5664 6.48486H53.0983V28.5338H48.5664V6.48486ZM55.6642 20.9826C55.654 17.7447 57.5967 14.8199 60.5852 13.5737C63.5738 12.3275 67.0189 13.0057 69.3121 15.2917C71.6053 17.5777 72.2944 21.0206 71.0576 24.0131C69.8208 27.0056 66.9022 28.9574 63.6642 28.9575C61.5399 28.9802 59.4957 28.1481 57.9912 26.6483C56.4867 25.1485 55.6482 23.1069 55.6642 20.9826ZM63.6099 17.5995C65.5164 17.5666 67.0931 19.0765 67.1427 20.9826H67.1486C67.1982 21.9276 66.8505 22.8502 66.1895 23.5272C65.5285 24.2043 64.6145 24.574 63.6686 24.5471C61.7619 24.5464 60.212 23.0091 60.1959 21.1024C60.1797 19.1957 61.7035 17.6323 63.6099 17.5995ZM89.7338 13.4271V27.7752C89.7338 32.8493 85.7768 34.993 81.7605 34.993C78.8783 35.2106 76.116 33.8003 74.602 31.3382L78.4671 29.1026C79.106 30.3934 80.4788 31.1521 81.9116 31.0063C82.8161 31.1299 83.7278 30.8362 84.3903 30.2081C85.0527 29.5799 85.3943 28.685 85.319 27.7752V26.3856C84.2428 27.7016 82.6067 28.4298 80.9086 28.3486C76.7644 28.2198 73.4715 24.823 73.4715 20.6767C73.4715 16.5304 76.7644 13.1337 80.9086 13.0049C82.6067 12.9236 84.2428 13.6518 85.319 14.9678V13.4271H89.7338ZM83.1725 17.1903C84.534 17.8041 85.386 19.1837 85.3249 20.676V20.6804C85.3516 21.645 84.9694 22.5759 84.2727 23.2435C83.576 23.9111 82.6297 24.2533 81.6671 24.1856C80.1736 24.185 78.8304 23.2767 78.2734 21.8909C77.7165 20.5052 78.0576 18.92 79.1353 17.8859C80.2129 16.8519 81.8109 16.5766 83.1725 17.1903ZM92.2997 20.9723C92.2895 17.7343 94.2322 14.8095 97.2208 13.5633C100.209 12.3171 103.654 12.9953 105.948 15.2813C108.241 17.5673 108.93 21.0102 107.693 24.0027C106.456 26.9952 103.538 28.9471 100.3 28.9471C98.1773 28.9698 96.1347 28.1391 94.6305 26.6416C93.1263 25.1441 92.2865 23.1052 92.2997 20.9826V20.9723ZM100.244 17.5861C102.152 17.5535 103.729 19.0649 103.778 20.9723V20.9826C103.825 21.9247 103.476 22.8436 102.817 23.5181C102.158 24.1926 101.247 24.5618 100.304 24.5367C98.3962 24.5369 96.8448 22.9989 96.8284 21.091C96.812 19.1831 98.3368 17.6187 100.244 17.5861Z" fill="#001A49"/>
<defs>
<linearGradient id="paint0_linear_1_4604" x1="19.4876" y1="41.7333" x2="36.0901" y2="16.4983" gradientUnits="userSpaceOnUse">
<stop stop-color="#FFD7A9"/>
<stop offset="1" stop-color="#FFAE70"/>
</linearGradient>
<linearGradient id="paint1_linear_1_4604" x1="25.2382" y1="49.8199" x2="51.7928" y2="23.5415" gradientUnits="userSpaceOnUse">
<stop stop-color="#CD10FF"/>
<stop offset="1" stop-color="#9F06FF"/>
</linearGradient>
</defs>
</svg>
